<?xml version="1.0" encoding="UTF-8"?>
<svg version="1.1" xmlns="http://www.w3.org/2000/svg" width="1482" height="1600">
<path d="M0 0 C489.06 0 978.12 0 1482 0 C1482 528 1482 1056 1482 1600 C992.94 1600 503.88 1600 0 1600 C0 1072 0 544 0 0 Z " fill="#FEFEFE" transform="translate(0,0)"/>
<path d="M0 0 C149.79325009 -0.32233665 149.79325009 -0.32233665 191.22090852 -0.40130667 C193.63691084 -0.40591355 196.05291317 -0.41052106 198.46891547 -0.41513988 C254.90546701 -0.5230225 311.34202811 -0.60896075 367.77864075 -0.67749023 C369.61121902 -0.67972144 371.4437973 -0.68195267 373.27637558 -0.68418391 C411.74420418 -0.7309487 450.21203594 -0.77441595 488.67987252 -0.81407485 C508.00405986 -0.83400089 527.32824649 -0.85456045 546.65243252 -0.87571906 C549.56738017 -0.87890705 552.48232784 -0.88207694 555.39727552 -0.88524608 C600.27377264 -0.93419537 645.15020032 -0.99671651 690.02661133 -1.09863281 C691.47350682 -1.10191838 691.47350682 -1.10191838 692.94963251 -1.10527033 C708.50140656 -1.14066747 724.05317792 -1.17720553 739.60494896 -1.21389505 C784.40874653 -1.31957812 829.21249057 -1.41679948 874.01640034 -1.45823669 C875.3989717 -1.45952154 875.3989717 -1.45952154 876.80947379 -1.46083233 C897.04527287 -1.47948628 917.28107261 -1.49380314 937.51687764 -1.50401573 C945.65957574 -1.50820157 953.80227346 -1.5130115 961.94497108 -1.51803589 C963.28172984 -1.51883814 963.28172984 -1.51883814 964.64549382 -1.5196566 C993.34041935 -1.53718806 1022.03494748 -1.605485 1050.72971271 -1.70051534 C1079.64468419 -1.79604188 1108.55927042 -1.84156328 1137.47440363 -1.81798381 C1141.47402816 -1.81473471 1145.47365288 -1.81205652 1149.47327805 -1.8097229 C1150.64929468 -1.80900577 1150.64929468 -1.80900577 1151.84906923 -1.80827415 C1164.24249003 -1.80219366 1176.63509337 -1.84984611 1189.02829164 -1.9201578 C1201.22782329 -1.98825853 1213.4263 -1.99890724 1225.62593239 -1.94930902 C1232.14731863 -1.924357 1238.66653498 -1.92612174 1245.18768384 -1.99813092 C1291.50807807 -2.48015583 1291.50807807 -2.48015583 1304.30873768 9.78005356 C1305.5913885 11.14850539 1306.84973042 12.54025912 1308.07940022 13.95650971 C1311.49443683 17.5900591 1315.61165229 20.28628169 1319.6875 23.125 C1326.64392724 28.19732188 1333.45532545 33.43544201 1340.22900391 38.74829102 C1345.60432983 42.95029563 1351.05769957 47.03190054 1356.5625 51.0625 C1364.70038501 57.02103662 1372.73038475 63.10653674 1380.7265625 69.25341797 C1392.43457215 78.24816679 1404.1832223 87.17718067 1416.0925293 95.90405273 C1422.85369559 100.86755931 1429.52107901 105.9473935 1436.16796875 111.0625 C1440.0907496 114.06956544 1444.04581015 117.03435761 1448 120 C1448 210.09 1448 300.18 1448 393 C970.16 393 492.32 393 0 393 C0 263.31 0 133.62 0 0 Z " fill="#E0004B" transform="translate(18,1191)"/>
<path d="M0 0 C1.95797432 -0.0023081 3.91594777 -0.00548697 5.87391943 -0.00945449 C11.22156037 -0.01776297 16.56912945 -0.01369524 21.91677058 -0.00748205 C27.69665477 -0.00294238 33.47652692 -0.0099488 39.25640869 -0.01544189 C50.56601687 -0.02432121 61.87559846 -0.02242044 73.18520767 -0.01661661 C82.3786054 -0.0120946 91.57199569 -0.01148955 100.76539421 -0.01366425 C102.07526518 -0.01397071 103.38513615 -0.01427718 104.73470018 -0.01459293 C107.3959022 -0.0152324 110.05710422 -0.01588083 112.71830624 -0.01653811 C136.94411511 -0.02227528 161.16991056 -0.01633928 185.39571715 -0.00585292 C207.49139385 0.00363868 229.5870475 0.00278734 251.682724 -0.0067749 C276.53303827 -0.01749343 301.38333961 -0.02168889 326.23365587 -0.01555037 C328.884606 -0.01491329 331.53555614 -0.01428455 334.18650627 -0.01366425 C335.49073545 -0.01335569 336.79496463 -0.01304714 338.13871591 -0.01272924 C347.31901305 -0.01100412 356.49930199 -0.01391345 365.67959785 -0.01862335 C376.87013907 -0.02423856 388.06065224 -0.0227022 399.25119025 -0.01206186 C404.95808968 -0.00681397 410.66494237 -0.00473342 416.37184143 -0.01136017 C421.60067408 -0.01733987 426.82941687 -0.0140112 432.05824142 -0.00340506 C433.94498568 -0.00117962 435.83173761 -0.00228801 437.7184769 -0.00715664 C447.8189542 -0.03121161 457.45125727 0.31908234 467.40904236 2.25396729 C468.65298767 2.46537354 469.89693298 2.67677979 471.17857361 2.89459229 C492.90783525 7.24602337 513.2702945 16.58602084 526.40513611 35.07818604 C534.28964155 47.57351337 538.53693845 61.29878995 538.53209019 76.08113766 C538.53324403 76.73417331 538.53439788 77.38720897 538.53558668 78.06003359 C538.53822499 80.23936389 538.53375429 82.4186197 538.52929688 84.59794617 C538.52973315 86.17966147 538.53060909 87.7613767 538.53188604 89.34309155 C538.53412 93.68268656 538.53012473 98.02225685 538.52510798 102.36184871 C538.52078791 107.04411434 538.52225101 111.72637857 538.52301025 116.40864563 C538.5235345 124.51874051 538.52039805 132.62882735 538.51477242 140.73892021 C538.50664399 152.46474102 538.50404082 164.19055793 538.50278442 175.91638125 C538.50059602 194.94094013 538.49394165 213.96549472 538.48448181 232.99005127 C538.47530223 251.47019428 538.46822407 269.95033613 538.463974 288.43048096 C538.46371128 289.5696742 538.46344855 290.70886745 538.46317787 291.8825817 C538.46187283 297.59760247 538.46060912 303.31262325 538.45936596 309.02764404 C538.44899993 356.43642142 538.43138735 403.84519414 538.40904236 451.25396729 C536.99431317 450.32147239 535.58102295 449.3867942 534.1683197 448.45123291 C533.38113556 447.93097534 532.59395142 447.41071777 531.78291321 446.87469482 C528.06546469 444.33665819 524.55795371 441.55133197 521.03404236 438.75396729 C514.73963928 433.80497308 508.37554181 428.97574955 501.90904236 424.25396729 C494.89598074 419.1290927 488.01198231 413.86538077 481.17857361 408.50396729 C475.82680623 404.31968843 470.39358841 400.2622489 464.90904236 396.25396729 C458.66023918 391.68714213 452.4982963 387.03147416 446.40904236 382.25396729 C439.42188331 376.77245609 432.32284652 371.46563248 425.15855408 366.21832275 C419.13200148 361.80050592 413.1982738 357.28112129 407.28990173 352.70611572 C395.75999333 343.80426017 384.14594856 335.02407997 372.38999939 326.42315674 C365.9854935 321.71982667 359.70112272 316.87260559 353.45713806 311.95855713 C352.76579773 311.41537842 352.0744574 310.87219971 351.36216736 310.31256104 C350.76565369 309.84132813 350.16914001 309.37009521 349.55455017 308.88458252 C347.29862032 307.04100665 347.29862032 307.04100665 343.82461548 305.65713501 C341.02412105 303.62619292 340.46673737 302.53956644 339.77173424 299.09919453 C339.54282881 294.77529521 339.54311607 290.49989189 339.61436462 286.17266846 C339.61650948 284.47998066 339.61557364 282.7872866 339.61180782 281.09460163 C339.61022802 276.56318782 339.65078251 272.03306905 339.70008087 267.50196075 C339.73996013 263.24953653 339.74182325 258.99742653 339.74681091 254.74481201 C339.78353554 242.31019236 339.88126389 229.87581345 339.97154236 217.44146729 C340.11591736 189.65959229 340.26029236 161.87771729 340.40904236 133.25396729 C259.88904236 133.25396729 179.36904236 133.25396729 96.40904236 133.25396729 C96.20279236 164.81021729 95.99654236 196.36646729 95.78404236 228.87896729 C95.67237732 238.82746826 95.56071228 248.77596924 95.44566345 259.02593994 C95.43206627 267.97643167 95.43206627 267.97643167 95.44239807 276.9269104 C95.4463473 280.90207453 95.40001154 284.87316931 95.32252502 288.8475647 C93.5914973 311.62008315 93.5914973 311.62008315 101.35392761 331.90957642 C104.998891 335.14447542 108.83725211 337.39157 113.30324459 339.30791855 C116.18711223 340.60352223 118.52123967 342.42449625 120.97154236 344.40240479 C122.44930341 345.47985612 123.9284031 346.55547463 125.40904236 347.62896729 C141.23942265 359.22286567 141.23942265 359.22286567 144.40904236 362.25396729 C144.40904236 362.91396729 144.40904236 363.57396729 144.40904236 364.25396729 C144.99049011 364.52837646 145.57193787 364.80278564 146.17100525 365.08551025 C148.35716456 366.2268824 150.23649257 367.48451269 152.21763611 368.94927979 C152.9536908 369.4919751 153.68974548 370.03467041 154.44810486 370.59381104 C155.23958923 371.1829126 156.03107361 371.77201416 156.84654236 372.37896729 C157.6805658 372.99642822 158.51458923 373.61388916 159.37388611 374.25006104 C166.48785482 379.53260625 173.53246374 384.90454897 180.56895447 390.28961182 C186.30508994 394.67262118 192.08524822 398.98825879 197.90904236 403.25396729 C205.60352485 408.89115758 213.20653392 414.64038525 220.78404236 420.43365479 C225.97294719 424.40028426 231.17673305 428.34478606 236.40904236 432.25396729 C242.54477145 436.83811467 248.63700862 441.47712899 254.72154236 446.12896729 C262.17159125 451.82162404 269.68038663 457.42417513 277.24424744 462.9644165 C284.08680943 467.98821345 290.83242193 473.13373874 297.57310486 478.29302979 C303.30807146 482.67461194 309.08669429 486.98931798 314.90904236 491.25396729 C322.60352485 496.89115758 330.20653392 502.64038525 337.78404236 508.43365479 C342.97294719 512.40028426 348.17673305 516.34478606 353.40904236 520.25396729 C359.54477145 524.83811467 365.63700862 529.47712899 371.72154236 534.12896729 C379.17159125 539.82162404 386.68038663 545.42417513 394.24424744 550.9644165 C401.08680943 555.98821345 407.83242193 561.13373874 414.57310486 566.29302979 C420.30807146 570.67461194 426.08669429 574.98931798 431.90904236 579.25396729 C439.60352485 584.89115758 447.20653392 590.64038525 454.78404236 596.43365479 C459.9729498 600.40028625 465.17688318 604.3445826 470.40904236 608.25396729 C476.74642653 612.99225206 483.05187821 617.77158296 489.34654236 622.56646729 C490.21085876 623.22453369 491.07517517 623.8826001 491.96568298 624.56060791 C493.63713272 625.83513666 495.30708912 627.11162652 496.97544861 628.39019775 C498.59924929 629.63378668 500.22687531 630.87239639 501.85826111 632.10601807 C511.7187566 639.62995161 519.3012371 648.45340386 525.40904236 659.25396729 C526.0058783 660.30068604 526.60271423 661.34740479 527.21763611 662.42584229 C535.04210916 677.03152531 538.56245702 692.39881529 538.54948425 708.89512634 C538.55245538 710.07516088 538.5554265 711.25519541 538.55848765 712.47098857 C538.5656519 715.73861724 538.56834574 719.00621381 538.56908512 722.27384913 C538.57094052 725.80175335 538.57849061 729.32964628 538.58522034 732.85754395 C538.59878822 740.57102673 538.60482684 748.28450431 538.609231 755.99799705 C538.61199776 760.82145341 538.61623607 765.64490779 538.62073517 770.46836281 C538.63292909 783.84137057 538.64322603 797.21437674 538.64661026 810.58738995 C538.64682983 811.44297441 538.64704939 812.29855888 538.64727561 813.18007015 C538.64749389 814.03763769 538.64771217 814.89520523 538.64793706 815.77875966 C538.64838052 817.51634514 538.64882708 819.25393063 538.64927673 820.99151611 C538.64949816 821.8534081 538.64971959 822.7153001 538.64994773 823.60331003 C538.65388831 837.54164792 538.67131911 851.4799333 538.69463626 865.41825094 C538.71842093 879.75274201 538.73081545 894.08720683 538.73197818 908.42171794 C538.7328913 916.45999913 538.73855096 924.49821199 538.75679779 932.53647423 C538.77229559 939.38765106 538.77726302 946.23873849 538.76905969 953.08992954 C538.76518619 956.5778764 538.76591802 960.06564379 538.78011703 963.55356789 C538.8724542 990.89049573 537.77055722 1015.71077864 518.17076111 1036.64459229 C498.29304281 1055.77404951 468.96986108 1062.45167871 442.08537006 1062.38539505 C440.89950664 1062.388474 440.89950664 1062.388474 439.68968639 1062.39161515 C437.05431838 1062.39724618 434.41900329 1062.39583275 431.78363037 1062.39440918 C429.86938454 1062.39699507 427.95513924 1062.40000886 426.04089469 1062.40341258 C420.79056624 1062.41145985 415.54025148 1062.41327089 410.28991759 1062.41401005 C404.62293167 1062.41586463 398.95595278 1062.42341413 393.28897095 1062.43014526 C380.89999305 1062.44371419 368.5110184 1062.44975141 356.12203431 1062.45415592 C348.37968201 1062.45692147 340.63733094 1062.46115946 332.89497948 1062.4656601 C311.44104089 1062.47785218 289.98710393 1062.48818611 268.53316212 1062.49153519 C267.14674152 1062.49175682 265.76032093 1062.4919786 264.37390034 1062.49220054 C262.98423088 1062.49242117 261.59456143 1062.49264166 260.20489198 1062.49286199 C257.41722921 1062.49330452 254.62956645 1062.49375164 251.84190369 1062.49420166 C250.80514266 1062.49436575 250.80514266 1062.49436575 249.74743696 1062.49453315 C227.35950141 1062.49816002 204.97159831 1062.51406659 182.58367517 1062.53739202 C158.88321838 1062.56203953 135.18278389 1062.57570366 111.48231333 1062.5769031 C98.57529625 1062.57781783 85.66832164 1062.58351865 72.7613163 1062.60172272 C61.76597232 1062.61717626 50.77068396 1062.62221339 39.77533118 1062.61398461 C34.17263903 1062.61009631 28.57005868 1062.61091798 22.96738052 1062.62504196 C17.82296467 1062.63789115 12.67874336 1062.63648804 7.53432735 1062.62445125 C5.68832026 1062.62251311 3.84229884 1062.62548376 1.99631176 1062.63429561 C-25.86532884 1062.75870844 -55.57188681 1058.93681527 -77.59095764 1040.25396729 C-78.79558655 1039.34131104 -78.79558655 1039.34131104 -80.02455139 1038.41021729 C-94.04594509 1026.62968559 -100.66281964 1006.91775198 -102.59095764 989.25396729 C-103.27441673 977.43270566 -103.10899482 965.57477038 -103.05522013 953.73878253 C-103.03778559 948.91766857 -103.04380303 944.09657306 -103.04682922 939.2754364 C-103.04891657 930.94287247 -103.03647246 922.61043479 -103.01387787 914.2779026 C-102.98123224 902.23079815 -102.97093806 890.18375412 -102.9659259 878.13661023 C-102.95719286 858.58625789 -102.93063156 839.03597268 -102.89271545 819.48565674 C-102.85594366 800.5055169 -102.82765725 781.52539536 -102.8106842 762.54522705 C-102.80963331 761.37334254 -102.80858242 760.20145803 -102.80749968 758.99406186 C-102.80227915 753.11447996 -102.79722441 747.23489792 -102.79225206 741.3553158 C-102.75085209 692.65481993 -102.68045819 643.9543969 -102.59095764 595.25396729 C-101.14565551 596.21310169 -99.70093203 597.1731081 -98.25645447 598.13348389 C-97.04956624 598.93524929 -97.04956624 598.93524929 -95.81829643 599.75321198 C-93.41037855 601.3756394 -91.08396578 603.07281633 -88.78627014 604.84771729 C-87.96578186 605.47806885 -87.14529358 606.10842041 -86.29994202 606.75787354 C-85.02086975 607.74593994 -85.02086975 607.74593994 -83.71595764 608.75396729 C-76.89130039 613.99183143 -70.03352626 619.17339586 -63.09095764 624.25396729 C-55.46921762 629.83590704 -47.94589542 635.53752137 -40.44447327 641.27984619 C-34.53844631 645.79254989 -28.58516358 650.23417977 -22.59095764 654.62896729 C-15.81300219 659.59983525 -9.11792942 664.65556182 -2.47181702 669.80181885 C8.99959165 678.65850872 20.55197375 687.40007599 32.24351501 695.96392822 C39.08342866 700.98563698 45.82647431 706.12897841 52.5643158 711.28643799 C59.06247816 716.25134633 65.61614445 721.13403169 72.22740173 725.94732666 C73.66458945 726.9975279 75.07395289 728.08660814 76.45684814 729.20733643 C78.91778764 730.91340126 80.84616771 731.88352723 83.56533813 732.99847412 C89.17411543 735.68451678 93.31980864 738.76158604 96.40904236 744.25396729 C99.50562733 756.77905813 98.44298893 770.26314174 98.13080597 783.05840302 C98.03340421 787.69683764 98.02940456 792.33361002 98.01731873 796.9730835 C97.92839526 810.50514219 97.6910509 824.03589686 97.47154236 837.56646729 C97.12091736 867.82334229 96.77029236 898.08021729 96.40904236 929.25396729 C176.92904236 929.25396729 257.44904236 929.25396729 340.40904236 929.25396729 C340.67716736 895.09896729 340.94529236 860.94396729 341.22154236 825.75396729 C341.36051941 814.98836182 341.49949646 804.22275635 341.64268494 793.13092041 C341.66631772 783.44067684 341.66631772 783.44067684 341.66201782 773.75042725 C341.66085487 769.44822367 341.7183463 765.15119514 341.81228638 760.85003662 C343.72166067 735.93199898 343.72166067 735.93199898 334.7908783 713.93978882 C330.50867444 710.24639215 325.99062914 707.62732214 320.82514858 705.36216927 C317.58169061 703.87448362 315.16001174 701.96830666 312.43247986 699.68365479 C303.47434368 692.83054679 294.46348662 686.06301588 285.36167908 679.4019165 C279.20895117 674.88272437 273.18365325 670.21533725 267.17784119 665.503479 C261.82640175 661.31925478 256.39335111 657.26207547 250.90904236 653.25396729 C243.89621267 648.12876712 237.01199296 642.86538912 230.17857361 637.50396729 C224.82680623 633.31968843 219.39358841 629.2622489 213.90904236 625.25396729 C207.66023918 620.68714213 201.4982963 616.03147416 195.40904236 611.25396729 C188.42188331 605.77245609 181.32284652 600.46563248 174.15855408 595.21832275 C168.70240901 591.21864813 163.31630169 587.14662801 157.96763611 583.00396729 C146.56179039 574.17104481 135.05723736 565.46295638 123.50083923 556.82818604 C118.00431501 552.71544073 112.55004904 548.54850887 107.09654236 544.37896729 C100.35453824 539.22572631 93.57008551 534.13968249 86.72154236 529.12896729 C79.77279667 524.0438175 72.95210466 518.8182256 66.17784119 513.503479 C60.82640175 509.31925478 55.39335111 505.26207547 49.90904236 501.25396729 C42.89621267 496.12876712 36.01199296 490.86538912 29.17857361 485.50396729 C23.82680623 481.31968843 18.39358841 477.2622489 12.90904236 473.25396729 C6.66023918 468.68714213 0.4982963 464.03147416 -5.59095764 459.25396729 C-12.57522966 453.77472099 -19.671103 448.4697631 -26.83265686 443.22491455 C-32.37412005 439.16296823 -37.84748997 435.03058394 -43.27455139 430.81646729 C-45.77175217 428.87838723 -48.28878909 426.96841538 -50.81361389 425.06646729 C-70.24250533 410.40576828 -86.35284641 395.19470448 -95.59095764 372.25396729 C-95.94802795 371.45474854 -96.30509827 370.65552979 -96.67298889 369.83209229 C-103.82081428 352.59164453 -103.03544184 332.92979589 -103.01087952 314.63922119 C-103.01823594 312.0217503 -103.02682669 309.40428264 -103.0365448 306.78681946 C-103.05740636 300.46416056 -103.06215096 294.14159371 -103.06035691 287.81890441 C-103.05903985 282.67129511 -103.06290102 277.52371407 -103.07028198 272.37611008 C-103.09312826 256.13019234 -103.09871022 239.88436176 -103.09076768 223.63843112 C-103.08519382 210.87985944 -103.1060251 198.12148864 -103.13912815 185.36296387 C-103.17300522 172.20208287 -103.18801642 159.04129774 -103.18341112 145.88037241 C-103.18118108 138.5156493 -103.18619291 131.15111194 -103.21130371 123.78642654 C-103.23473352 116.85696539 -103.23156541 109.92792642 -103.21137619 102.99845695 C-103.20799362 100.47273745 -103.21293446 97.94698909 -103.22735977 95.42130852 C-103.36508659 69.49476725 -100.4069708 44.71774483 -81.59095764 25.25396729 C-59.03016268 4.53119236 -29.55553283 -0.07636508 0 0 Z " fill="#352E76" transform="translate(930.5909576416016,15.74603271484375)"/>
<path d="M0 0 C53.93768394 -0.04585694 107.87536589 -0.08105947 161.81306552 -0.10213066 C168.19235296 -0.10463184 174.57164035 -0.1072205 180.95092773 -0.10986328 C182.22083786 -0.1103879 183.49074799 -0.11091252 184.79914024 -0.11145304 C205.31536073 -0.12013689 225.83156992 -0.13589565 246.34778372 -0.15430559 C267.4260347 -0.17306101 288.5042798 -0.18412861 309.58253878 -0.18817699 C322.57104267 -0.19091038 335.5595146 -0.19951861 348.54800864 -0.21583293 C357.47533047 -0.22646958 366.40263597 -0.22958564 375.32996366 -0.22700275 C380.46738139 -0.22573178 385.60474361 -0.22756962 390.74215126 -0.23841095 C443.56443313 -0.34429382 443.56443313 -0.34429382 469.375 4.3125 C470.62265137 4.5305127 471.87030273 4.74852539 473.15576172 4.97314453 C491.04459847 8.17275517 507.99899094 12.58262306 525 19 C526.21139648 19.44617676 526.21139648 19.44617676 527.44726562 19.90136719 C556.25568204 30.55196078 581.61479926 45.97820384 604 67 C604.53141602 67.49741699 605.06283203 67.99483398 605.61035156 68.50732422 C630.30448504 91.81232454 645.97008834 121.14696677 654 154 C654.29131152 155.17698928 654.29131152 155.17698928 654.58850813 156.37775612 C659.5645134 177.59943135 658.54555727 199.47021199 658.46426249 221.11258101 C658.44681704 226.94861336 658.45284614 232.78463064 658.45587158 238.62068176 C658.45795825 248.70582356 658.44552129 258.790861 658.42292023 268.87597656 C658.39026531 283.45693004 658.37996613 298.03784911 658.37496826 312.61883235 C658.36659202 336.281561 658.33971399 359.94423543 658.30175781 383.60693359 C658.26495291 406.57861037 658.23665148 429.55027225 658.21972656 452.52197266 C658.21920046 453.2314807 658.21867435 453.94098874 658.21813231 454.67199703 C658.21285771 461.79790781 658.20775453 468.9238187 658.20277687 476.04972969 C658.19263512 490.56285769 658.18135011 505.07598473 658.16937256 519.58911133 C658.1688234 520.25623459 658.16827424 520.92335784 658.16770844 521.61069696 C658.13097654 566.07382056 658.06752036 610.53691383 658 655 C656.68275436 654.8958654 656.68275436 654.8958654 655.33889771 654.78962708 C653.59937332 654.6536335 653.59937332 654.6536335 651.82470703 654.51489258 C650.1052739 654.37982048 650.1052739 654.37982048 648.35110474 654.24201965 C617.66483844 652.02583123 589.23449711 659.3749647 565.61328125 679.63671875 C545.01391864 698.2654398 529.23585375 722.65897474 527 751 C526.28936096 766.67749356 525.92173456 782.01832593 531 797 C531.20898926 797.62438965 531.41797852 798.2487793 531.63330078 798.89208984 C535.96161776 811.51391606 542.36153562 824.28452863 551.00390625 834.51953125 C552 836 552 836 552 839 C550.70703125 840.3671875 550.70703125 840.3671875 548.8125 841.875 C529.56898716 858.12129314 513.30136957 879.19218097 507 904 C506.82243164 904.64243652 506.64486328 905.28487305 506.46191406 905.94677734 C500.48772427 927.89411708 500.77839778 953.33519334 508 975 C508.41121094 976.23363281 508.82242188 977.46726562 509.24609375 978.73828125 C516.89257876 1000.74595441 530.36735578 1017.01732885 547 1033 C544.31169179 1035.15072261 541.82108633 1036.64284931 538.62109375 1037.90234375 C537.78827881 1038.23322998 536.95546387 1038.56411621 536.09741211 1038.9050293 C535.21964111 1039.24574463 534.34187012 1039.58645996 533.4375 1039.9375 C532.5307251 1040.29303955 531.6239502 1040.6485791 530.68969727 1041.01489258 C528.906375 1041.71174035 527.1218264 1042.40545971 525.3359375 1043.09570312 C523.52189064 1043.79796374 521.7129832 1044.5135067 519.90625 1045.234375 C506.95254708 1050.23548815 493.26792633 1053.09449021 479.6746521 1055.73760986 C477.79896802 1056.1032696 475.92540511 1056.47976197 474.05200195 1056.85693359 C446.37572515 1062.06595651 418.72741269 1062.43527176 390.67635742 1062.34821819 C385.27215454 1062.33491977 379.867958 1062.33951486 374.46374321 1062.34167194 C364.01947594 1062.34325346 353.57528737 1062.32953415 343.13104021 1062.31016796 C331.02542242 1062.28840186 318.91985059 1062.28617469 306.81420898 1062.28381348 C274.91779369 1062.26812046 243.02139563 1062.22623668 211.125 1062.1875 C139.80375 1062.125625 68.4825 1062.06375 -5 1062 C-5 779.85 -5 497.7 -5 207 C2.86504838 211.49431336 2.86504838 211.49431336 5.953125 213.9609375 C6.64446533 214.50733887 7.33580566 215.05374023 8.0480957 215.61669922 C8.77472412 216.19693848 9.50135254 216.77717773 10.25 217.375 C16.52509045 222.32223128 22.86044537 227.16086799 29.3125 231.875 C36.10180465 236.84029146 42.82152285 241.88660865 49.5 247 C56.2844194 252.19364615 63.10941403 257.32301121 70 262.375 C76.77795546 267.34586796 83.47302822 272.40159454 90.11914062 277.54785156 C101.59054929 286.40454143 113.14293139 295.14610871 124.83447266 303.70996094 C131.67733986 308.73383812 138.42314718 313.87959359 145.1640625 319.0390625 C150.08732231 322.80049109 155.03098015 326.52845371 160.03222037 330.18571833 C161.57831051 331.32238506 163.11897301 332.46651316 164.65142288 333.6215038 C168.8087742 336.74133347 172.99789093 339.65132349 177.43270272 342.36453295 C192.72288337 352.12501689 192.72288337 352.12501689 194.92467368 360.16081142 C195.89684893 366.19866745 195.70430669 372.2053588 195.52534485 378.29772949 C195.53451628 380.63385329 195.5529292 382.96995576 195.57971734 385.30594397 C195.62646395 391.69168366 195.54301968 398.06996395 195.43737805 404.45475316 C195.3453382 410.6419897 195.37357481 416.82932364 195.38869673 423.01703608 C195.41620582 435.66468173 195.34644639 448.31001307 195.22033119 460.95698547 C195.09587024 473.47027572 195.01520687 485.98260101 194.9924221 498.49650574 C194.99097857 499.27591914 194.98953504 500.05533254 194.98804776 500.85836453 C194.9809423 504.81696561 194.97461342 508.77556753 194.96858337 512.73417038 C194.92452941 540.7389628 194.78320132 568.74249757 194.58422852 596.74658203 C194.39121014 623.94410537 194.24252681 651.14128397 194.15356445 678.33935547 C194.1508024 679.17840453 194.14804035 680.01745359 194.14519461 680.88192838 C194.11750456 689.30836608 194.09071264 697.73480644 194.06457856 706.1612491 C194.01132482 723.32533188 193.95207854 740.48939224 193.88920593 757.65344238 C193.88632284 758.44253601 193.88343975 759.23162963 193.8804693 760.04463518 C193.68740835 812.69695223 193.35423885 865.34855054 193 918 C213.368404 917.91573104 233.73672913 917.82046564 254.10502148 917.71247292 C263.56454577 917.66256878 273.02406235 917.61612539 282.48364258 917.578125 C290.73844073 917.54495527 298.99317478 917.50499091 307.24790174 917.45720994 C311.60977006 917.43219028 315.97159724 917.41033999 320.33351707 917.39665604 C346.72651569 917.33811575 346.72651569 917.33811575 373 915 C373.7568981 914.90006367 374.5137962 914.80012733 375.2936306 914.69716263 C398.98944242 911.49444999 425.33569768 902.17981564 440.6328125 882.79296875 C452.88294101 866.25837318 457.16878705 847.57193396 457.13142776 827.3297863 C457.1334804 826.28554583 457.13553303 825.24130537 457.13764787 824.16542125 C457.14330113 820.66722486 457.14186268 817.16906806 457.14044189 813.67086792 C457.14302648 811.13703813 457.1460399 808.60320875 457.1494453 806.06937993 C457.15666235 799.83652083 457.15921738 793.60367408 457.15977435 787.3708113 C457.16068987 779.90285295 457.16736294 772.43490247 457.17412117 764.96694752 C457.19016339 746.92030258 457.19608223 728.87365852 457.20086992 710.82700773 C457.20320743 702.28715144 457.20681023 693.74729583 457.2105653 685.20744006 C457.22339861 655.96491808 457.23411847 626.72239648 457.2375679 597.47987175 C457.23778953 595.64503195 457.23801132 593.81019215 457.23823325 591.97535235 C457.23845389 590.13613193 457.23867437 588.2969115 457.2388947 586.45769107 C457.23933725 582.76801801 457.23978437 579.07834494 457.24023438 575.38867188 C457.24034377 574.47385098 457.24045316 573.55903009 457.24056586 572.61648735 C457.24419656 542.95285742 457.26011823 513.28925192 457.28342474 483.62563135 C457.30803075 452.25060683 457.32174107 420.87559628 457.32293582 389.50056183 C457.32310727 386.0552566 457.3233227 382.60995138 457.32357025 379.16464615 C457.3236539 377.8921846 457.3236539 377.8921846 457.32373925 376.59401676 C457.32488894 362.95402107 457.33590388 349.3140505 457.35045731 335.67406329 C457.36483639 321.9601934 457.36805129 308.24635565 457.36001733 294.53248028 C457.35556793 286.39048536 457.35939406 278.24859433 457.37525584 270.10661309 C457.38618334 264.01940252 457.38134336 257.93231001 457.37048396 251.84509493 C457.36852626 249.38818056 457.37160875 246.93125572 457.38032833 244.47435604 C457.46944488 217.65994613 453.52879745 194.87505273 434 175 C433.45859375 174.44570312 432.9171875 173.89140625 432.359375 173.3203125 C409.22556187 151.70538609 373.35007822 148.76856475 343.47631836 148.9375 C341.85842557 148.94266631 340.24053084 148.94725246 338.62263489 148.9513092 C335.16500336 148.9603029 331.70738946 148.97158572 328.24976921 148.98416138 C322.77201277 149.00226438 317.29432527 149.00407104 311.81654358 149.00170898 C310.88802186 149.00133983 309.95950015 149.00097067 309.00284141 149.00059032 C305.18113016 148.99882824 301.3594192 148.99661975 297.53770816 148.99444389 C286.72962197 148.98918907 275.92198762 148.99901094 265.11401367 149.05126953 C256.49576383 149.09282659 247.87813403 149.10244072 239.25981814 149.07515907 C234.71071319 149.06196487 230.16289635 149.06457857 225.61393547 149.10620117 C221.33597524 149.14502313 217.06008923 149.14128499 212.78211784 149.10607719 C211.22133035 149.10057291 209.66039732 149.11016576 208.09982681 149.13676643 C196.49531125 149.32192607 190.58477327 146.78668267 182 139 C180.31261193 137.68905567 178.61518991 136.39078334 176.90234375 135.11328125 C175.24734183 133.84642471 173.59239498 132.57949623 171.9375 131.3125 C165.11236577 126.09656371 158.24528949 120.94687906 151.3125 115.875 C144.36372955 110.78988446 137.54306131 105.56425753 130.76879883 100.24951172 C125.41735939 96.06528749 119.98430875 92.00810819 114.5 88 C107.48717031 82.87479984 100.6029506 77.61142184 93.76953125 72.25 C88.41776388 68.06572115 82.98454606 64.00828162 77.5 60 C70.48717031 54.87479984 63.6029506 49.61142184 56.76953125 44.25 C51.41776218 40.06571982 45.98451646 36.0083248 40.5 32 C33.33808314 26.76507606 26.29532281 21.39891313 19.31469727 15.92480469 C13.97640053 11.74113787 8.56833333 7.66989483 3.08984375 3.671875 C1 2 1 2 0 0 Z " fill="#352E76" transform="translate(20,16)"/>
<path d="M0 0 C1.890103 -0.00856522 1.890103 -0.00856522 3.81838989 -0.01730347 C5.20741262 -0.01854869 6.59643546 -0.01967382 7.98545837 -0.02069092 C9.45439274 -0.0253225 10.92332591 -0.03034761 12.39225769 -0.03573608 C16.37817696 -0.04883304 20.36407941 -0.05530025 24.35001683 -0.05974674 C26.84452682 -0.06268303 29.33903227 -0.06678898 31.83353996 -0.07125092 C39.65037007 -0.08492136 47.46718974 -0.09458912 55.28403097 -0.09845281 C64.28423772 -0.10292664 73.28429207 -0.12044501 82.2844525 -0.1494534 C89.25538694 -0.17113511 96.22627872 -0.18116061 103.19724649 -0.18249393 C107.35369544 -0.18353771 111.51000105 -0.1893535 115.66641426 -0.20731354 C119.58251492 -0.2239059 123.49836625 -0.22589619 127.41448975 -0.21717453 C128.84302378 -0.21640997 130.27157184 -0.22066912 131.70007133 -0.23063278 C142.39975965 -0.30081765 154.20775311 -0.1491019 162.74693298 7.14044189 C169.2849786 13.77005677 170.04262205 19.36390379 170.00762939 28.29946899 C170.01145494 29.3319409 170.01528049 30.36441282 170.01922196 31.42817175 C170.02955235 34.89269749 170.02555968 38.35705752 170.02159119 41.82159424 C170.02593764 44.30355483 170.03112057 46.78551407 170.03707886 49.26747131 C170.04909434 55.31242735 170.05161933 61.35731809 170.04927859 67.40228008 C170.04749535 72.31629381 170.04924521 77.23029406 170.05350304 82.14430618 C170.05409823 82.84377407 170.05469341 83.54324195 170.05530664 84.26390583 C170.0565184 85.68489904 170.05773253 87.10589226 170.05894902 88.52688546 C170.06982532 101.85294883 170.06766172 115.17898689 170.06156417 128.50505169 C170.05639569 140.69267241 170.06764845 152.88021318 170.08666239 165.06781809 C170.10604088 177.58516512 170.11429672 190.10247432 170.11053914 202.61983645 C170.10862701 209.64611417 170.11111571 216.67232385 170.12525368 223.69858932 C170.13841429 230.30596441 170.13590726 236.91320588 170.12284279 243.52058983 C170.12047295 245.94616563 170.12322621 248.37175263 170.13146591 250.7973156 C170.1419003 254.10754635 170.13385875 257.41723634 170.12115479 260.72744751 C170.12852907 261.68805694 170.13590335 262.64866637 170.1435011 263.63838518 C170.07483422 272.13918248 167.91910345 277.96827143 161.74693298 284.14044189 C155.20675472 288.38345011 148.86105172 289.25862166 141.13237 289.28761292 C139.81755142 289.29476822 138.50273285 289.30192352 137.14807129 289.30929565 C135.70283532 289.31213541 134.2575991 289.3148472 132.81236267 289.31744385 C131.28092293 289.32371461 129.7494847 289.33036195 128.2180481 289.33735657 C123.20164535 289.35832348 118.18524256 289.36875089 113.16880798 289.37872314 C111.43736506 289.38277322 109.70592229 289.38689022 107.97447968 289.39107323 C99.83943404 289.41010738 91.70439739 289.42434307 83.56933379 289.4326852 C74.19722343 289.44245633 64.82534932 289.46878006 55.45332217 289.50918609 C48.19620276 289.53939446 40.93915092 289.55415847 33.68196988 289.55746621 C29.35340698 289.55981093 25.02509699 289.56869613 20.69660187 289.59392738 C16.62203725 289.61729664 12.54789054 289.62140609 8.47327614 289.611166 C6.98422921 289.6106727 5.49516106 289.61693192 4.0061779 289.63072205 C-5.85758347 289.71690916 -14.39913058 288.85562552 -22.62806702 282.95294189 C-28.77863446 276.3630482 -29.84283835 269.24521064 -29.76100159 260.50712585 C-29.77036153 258.95434979 -29.77036153 258.95434979 -29.77991056 257.37020451 C-29.79579629 253.92025328 -29.78325317 250.47101292 -29.77064514 247.02105713 C-29.77606816 244.54012644 -29.78319183 242.05919897 -29.79188538 239.57827759 C-29.8082096 233.55083745 -29.80585067 227.52367371 -29.79423481 221.49624448 C-29.78518413 216.59614876 -29.78398353 211.69610885 -29.78833008 206.79600716 C-29.78894301 206.09736996 -29.78955594 205.39873275 -29.79018745 204.67892473 C-29.79146641 203.25946337 -29.79276326 201.84000202 -29.79407781 200.4205407 C-29.80547045 187.12586937 -29.79239019 173.83130857 -29.77087635 160.53665537 C-29.7530026 149.13865978 -29.75611425 137.74082714 -29.77455139 126.34283447 C-29.79597465 113.09268054 -29.80437607 99.84262332 -29.79210234 86.59245449 C-29.7908282 85.17865663 -29.78957071 83.76485876 -29.78833008 82.35106087 C-29.78771298 81.65552156 -29.78709587 80.95998224 -29.78646007 80.24336598 C-29.78301182 75.35080812 -29.78882408 70.4583118 -29.79824829 65.56576347 C-29.81066111 58.9771607 -29.80177899 52.38881765 -29.77867126 45.80022812 C-29.7733849 43.38313749 -29.77489665 40.96602095 -29.78372192 38.54894066 C-29.79466312 35.24786971 -29.78092969 31.94778266 -29.76100159 28.64677429 C-29.76992447 27.69180618 -29.77884736 26.73683807 -29.78804064 25.75293154 C-29.70661763 18.79260973 -28.10405605 13.5230839 -23.57728577 8.15216064 C-16.33072244 2.28918936 -9.3492059 0.0254367 0 0 Z " fill="#FEFDFD" transform="translate(1147.2530670166016,1242.8595581054688)"/>
<path d="M0 0 C41.4871875 -0.0928125 41.4871875 -0.0928125 83.8125 -0.1875 C96.89676636 -0.22846802 96.89676636 -0.22846802 110.24536133 -0.27026367 C120.92321777 -0.28381348 120.92321777 -0.28381348 125.92704773 -0.28633118 C129.41078969 -0.28911837 132.89439354 -0.30032979 136.37809753 -0.31672668 C140.83116031 -0.33740628 145.28402419 -0.34345465 149.73713052 -0.33921683 C151.36554593 -0.34010211 152.99396877 -0.34599027 154.62234271 -0.35764539 C166.11856931 -0.43606245 176.64314688 -0.01938057 186.24609375 7.01171875 C192.24449719 13.81169058 192.57726849 20.4100072 192.50170898 29.08813477 C192.50981346 30.87255478 192.50981346 30.87255478 192.51808167 32.69302368 C192.52840063 35.93489043 192.52092028 39.17608638 192.50437045 42.41790891 C192.49044713 45.82189863 192.49698815 49.22585957 192.50050354 52.62986755 C192.50319958 58.34341992 192.4897813 64.05676148 192.46655273 69.77026367 C192.43993391 76.36303698 192.43820212 82.95545829 192.4499411 89.54826695 C192.46074273 95.90855036 192.45451399 102.26870724 192.44038582 108.62898064 C192.43464791 111.32778881 192.43469126 114.02650372 192.43945122 116.72531319 C192.44236502 120.49751047 192.4258474 124.2691349 192.40405273 128.04125977 C192.41080521 129.70986809 192.41080521 129.70986809 192.41769409 131.41218567 C192.3469422 138.79124449 191.55616158 143.76720741 186.875 149.6875 C173.66837985 160.31021621 154.03678333 158.49017205 138 159 C138.51796143 160.03068604 139.03592285 161.06137207 139.56958008 162.12329102 C141.55307867 166.07172539 143.53362399 170.0216357 145.51342773 173.97192383 C146.35901861 175.6581792 147.20533512 177.34407096 148.05249023 179.02954102 C152.83356637 188.54316893 157.53583565 198.08620293 162.09765625 207.70703125 C166.61847541 217.22630188 171.30226843 226.65736298 176.0390625 236.0703125 C176.38816114 236.76459036 176.73725979 237.45886822 177.09693718 238.1741848 C180.34472628 244.63308109 183.59622056 251.0900981 186.85693359 257.54248047 C188.66430793 261.11959749 190.46582207 264.6996137 192.26362228 268.28155136 C192.94157198 269.62943832 193.62173462 270.97621475 194.30421829 272.32181168 C195.24952182 274.18593663 196.1873263 276.05365814 197.12353516 277.92236328 C197.65661285 278.97884064 198.18969055 280.03531799 198.73892212 281.12380981 C200 284 200 284 201 289 C180.87 289 160.74 289 140 289 C117.33079333 242.69986273 117.33079333 242.69986273 110.91845703 229.2121582 C107.00958689 220.99544251 103.03707931 212.81006719 99.0625 204.625 C93.58452624 193.34356912 88.1292165 182.05195056 82.71704102 170.73876953 C82.26772217 169.8001709 81.81840332 168.86157227 81.35546875 167.89453125 C80.97028076 167.08862549 80.58509277 166.28271973 80.18823242 165.45239258 C78.81717538 162.62266832 77.40621028 159.81242056 76 157 C76 147.76 76 138.52 76 129 C94.81 129 113.62 129 133 129 C133 98.64 133 68.28 133 37 C108.58 37 84.16 37 59 37 C59 120.16 59 203.32 59 289 C39.53 289 20.06 289 0 289 C0 193.63 0 98.26 0 0 Z " fill="#FEFDFD" transform="translate(639,1243)"/>
<path d="M0 0 C1.43864467 -0.00571557 2.87728482 -0.01268437 4.31591797 -0.02079773 C8.1921153 -0.03861445 12.06808483 -0.0375825 15.94431067 -0.03185534 C19.19446287 -0.02874642 22.44457238 -0.03487483 25.69471848 -0.04089409 C33.3697579 -0.05490031 41.04468593 -0.05341099 48.71972656 -0.04199219 C56.60588671 -0.03051768 64.49170649 -0.04458422 72.3778218 -0.07138866 C79.17821466 -0.09362708 85.97850132 -0.10016471 92.77892792 -0.09431225 C96.82747248 -0.0909605 100.87579903 -0.09323772 104.92431259 -0.11056328 C108.73471312 -0.1261608 112.54461403 -0.12193719 116.35499573 -0.10325813 C118.39801845 -0.09788343 120.44106432 -0.11198867 122.48403931 -0.12695312 C133.79560393 -0.03776667 144.26663984 1.64112852 152.88330078 9.42749023 C156.35298331 14.03552004 156.61856261 19.00251137 156.59863281 24.6027832 C156.59892487 25.29616287 156.59921692 25.98954254 156.59951782 26.70393372 C156.59813388 28.9765003 156.58261742 31.24873152 156.56689453 33.52124023 C156.56316106 35.10450054 156.56031567 36.68776316 156.55831909 38.27102661 C156.55070892 42.42373107 156.5310831 46.57629404 156.50891113 50.72894287 C156.48478472 55.71916785 156.47565925 60.70944033 156.46400452 65.69970703 C156.444657 73.26792045 156.40631638 80.83582387 156.37158203 88.40405273 C136.90158203 88.40405273 117.43158203 88.40405273 97.37158203 88.40405273 C97.37158203 71.90405273 97.37158203 55.40405273 97.37158203 38.40405273 C72.29158203 38.40405273 47.21158203 38.40405273 21.37158203 38.40405273 C21.37158203 109.02405273 21.37158203 179.64405273 21.37158203 252.40405273 C46.45158203 252.40405273 71.53158203 252.40405273 97.37158203 252.40405273 C97.37158203 225.67405273 97.37158203 198.94405273 97.37158203 171.40405273 C82.85158203 171.40405273 68.33158203 171.40405273 53.37158203 171.40405273 C53.37158203 159.19405273 53.37158203 146.98405273 53.37158203 134.40405273 C87.69158203 134.40405273 122.01158203 134.40405273 157.37158203 134.40405273 C157.53279417 167.8152681 157.53279417 167.8152681 157.56689453 181.85522461 C157.59059556 191.53556836 157.6184032 201.21577247 157.67333984 210.89599609 C157.71333724 217.94720864 157.73904543 224.9983075 157.74793601 232.04963034 C157.75312907 235.77975433 157.76524535 239.50955322 157.79450226 243.23957253 C157.82697694 247.41409051 157.82753322 251.58805125 157.82568359 255.76269531 C157.8400647 256.98549698 157.8544458 258.20829865 157.8692627 259.46815491 C157.82724769 268.26314312 156.78789223 276.58103894 150.74658203 283.34155273 C141.39759534 289.05482238 133.29061272 289.98186908 122.44189453 289.88989258 C120.95912339 289.8920426 119.47635391 289.89592645 117.99359131 289.90139771 C113.99347098 289.91103118 109.99380205 289.8958631 105.99373627 289.87549162 C101.79172852 289.85782074 97.58973265 289.86144765 93.38769531 289.86221313 C86.33342007 289.86034447 79.27931767 289.84304021 72.22509766 289.81567383 C64.08961452 289.78422774 55.95432044 289.77367795 47.8187809 289.77514493 C39.12820737 289.77649994 30.43770591 289.76259542 21.74715424 289.74425173 C19.25577008 289.74000589 16.76439769 289.73857167 14.27301025 289.7377739 C10.34618566 289.7357523 6.41951731 289.72344008 2.49274445 289.70344162 C1.05854501 289.69764223 -0.37567243 289.69513051 -1.80988312 289.69629669 C-22.20844696 289.70659919 -22.20844696 289.70659919 -29.50341797 284.77905273 C-30.20208984 284.33303711 -30.90076172 283.88702148 -31.62060547 283.42749023 C-36.66540455 278.34343201 -38.08261962 272.69025376 -38.16805369 265.68220854 C-38.15569254 264.2253875 -38.15569254 264.2253875 -38.14308167 262.73913574 C-38.15002719 261.68847191 -38.15697272 260.63780808 -38.16412872 259.55530596 C-38.18237399 256.04698779 -38.17214086 252.5393477 -38.16186523 249.03100586 C-38.16892486 246.51081334 -38.17767006 243.99062507 -38.18797302 241.47044373 C-38.20813527 235.34328999 -38.20949621 229.21638542 -38.20134748 223.08921134 C-38.19503881 218.10804508 -38.19619243 213.12693292 -38.20261955 208.14576721 C-38.20352121 207.43589308 -38.20442286 206.72601894 -38.20535184 205.99463347 C-38.2072031 204.55238257 -38.20906566 203.1101317 -38.2109394 201.66788083 C-38.22750421 188.15480288 -38.21880964 174.64182944 -38.20195382 161.12875777 C-38.18725524 148.77381409 -38.20188971 136.41911356 -38.23072398 124.06420118 C-38.26013553 111.36706342 -38.27108534 98.67003781 -38.26154178 85.97286749 C-38.26051927 84.53602443 -38.25952466 83.09918135 -38.25855827 81.66233826 C-38.25808188 80.95544752 -38.25760549 80.24855678 -38.25711467 79.52024511 C-38.254953 74.54702778 -38.26474127 69.57391697 -38.2793293 64.60072327 C-38.29870289 57.90288882 -38.29174333 51.20557796 -38.2671299 44.50773811 C-38.26211816 42.05033151 -38.26562104 39.59289052 -38.27827835 37.1355114 C-38.29419646 33.77947679 -38.2792675 30.42493393 -38.25660706 27.06896973 C-38.26844278 26.0977557 -38.28027851 25.12654168 -38.2924729 24.12589693 C-38.20413005 17.68100278 -36.78607819 13.38572745 -32.62841797 8.40405273 C-23.79997963 -0.0878028 -11.55770646 -0.04189493 0 0 Z " fill="#FEFCFD" transform="translate(914.62841796875,1242.595947265625)"/>
<path d="M0 0 C1.09920273 0.00222061 2.19840546 0.00444122 3.33091736 0.00672913 C4.57212845 0.00680466 5.81333954 0.00688019 7.09216309 0.00695801 C8.45682311 0.01206541 9.82148274 0.01728142 11.18614197 0.02259827 C12.57476755 0.02446251 13.96339379 0.02588638 15.35202026 0.02688599 C19.01319686 0.03071065 22.67433402 0.04054048 26.335495 0.05158997 C30.06890835 0.06180519 33.80232805 0.06638384 37.53575134 0.07142639 C44.86584748 0.08216281 52.19591108 0.0992386 59.52598572 0.12025452 C63.13580398 12.52592623 66.58794292 24.94340357 69.65098572 37.49525452 C71.87870263 46.56989187 74.16737537 55.62212328 76.59288025 64.64613342 C77.88701835 69.46444455 79.14524928 74.29182221 80.40098572 79.12025452 C80.65291687 80.08664856 80.90484802 81.0530426 81.16441345 82.04872131 C82.46987119 87.05722632 83.77155971 92.06668619 85.06895447 97.07728577 C87.27697812 105.59162311 89.49882455 114.09596104 91.90098572 122.55775452 C94.69417401 132.42439058 97.12688492 142.3843813 99.58409119 152.33876038 C101.50873765 160.12514365 103.50897515 167.88456811 105.59068298 175.63075256 C106.91112691 180.55716996 108.18597449 185.49507223 109.46348572 190.43275452 C111.20909041 197.16149628 113.00081207 203.8711283 114.90098572 210.55775452 C117.69445552 220.42429915 120.12688839 230.38439537 122.58409119 240.33876038 C125.79440166 253.32783498 129.20435833 266.25464874 132.94395447 279.10267639 C133.93865811 282.60885228 134.52598572 285.44583668 134.52598572 289.12025452 C115.38598572 289.12025452 96.24598572 289.12025452 76.52598572 289.12025452 C69.54275401 258.85958378 69.54275401 258.85958378 67.65098572 249.24525452 C67.43957947 248.20369202 67.22817322 247.16212952 67.01036072 246.08900452 C66.19184846 241.97518315 65.52598572 238.33270172 65.52598572 234.12025452 C41.10598572 234.45025452 16.68598572 234.78025452 -8.47401428 235.12025452 C-11.30457857 248.77535627 -11.30457857 248.77535627 -14.12757874 262.43202209 C-14.48888154 264.16799942 -14.85043764 265.90392406 -15.21229553 267.63978577 C-15.3912738 268.5119574 -15.57025208 269.38412903 -15.75465393 270.2827301 C-17.08986076 276.66500105 -18.75048044 282.80063042 -20.47401428 289.12025452 C-39.61401428 289.12025452 -58.75401428 289.12025452 -78.47401428 289.12025452 C-77.68981516 284.41505979 -76.76306745 279.81617911 -75.66151428 275.18275452 C-75.48338196 274.43187561 -75.30524963 273.6809967 -75.12171936 272.90736389 C-72.94100537 263.79622742 -70.51459105 254.75811156 -67.94667053 245.74916077 C-64.36268489 233.14499341 -61.03143515 220.50532273 -57.8974762 207.78361511 C-55.69857684 198.86843255 -53.36089903 190.0173962 -50.76283264 181.2091217 C-48.44173191 173.23545801 -46.46012083 165.18205849 -44.47401428 157.12025452 C-42.08558396 147.42537834 -39.58848433 137.78854035 -36.76307678 128.21009827 C-34.44199964 120.23607519 -32.46020213 112.1823885 -30.47401428 104.12025452 C-28.2867811 95.24205755 -26.06139532 86.39245429 -23.47401428 77.62025452 C-20.46337825 67.40656256 -17.90786117 57.08479179 -15.36463928 46.74720764 C-13.45630802 38.99685005 -11.47046601 31.27375059 -9.39784241 23.5660553 C-8.59167108 20.55910443 -7.80195389 17.54886751 -7.02479553 14.53431702 C-6.81661194 13.72994202 -6.60842834 12.92556702 -6.39393616 12.09681702 C-5.97501232 10.47500255 -5.55849067 8.85256633 -5.14393616 7.22962952 C-3.30718699 0.16075258 -3.30718699 0.16075258 0 0 Z " fill="#FEFDFE" transform="translate(471.47401428222656,1242.8797454833984)"/>
<path d="M0 0 C1.23338104 -0.0071553 2.46676208 -0.01431061 3.73751831 -0.02168274 C5.0966184 -0.02452268 6.45571876 -0.02723445 7.81481934 -0.02983093 C9.2525753 -0.03610072 10.69032966 -0.04274797 12.12808228 -0.04974365 C16.84331139 -0.07073299 21.55854063 -0.08114428 26.27380371 -0.09111023 C27.90209469 -0.09516032 29.5303855 -0.09927732 31.15867615 -0.10346031 C38.81372276 -0.12250422 46.46875981 -0.13673444 54.12382555 -0.14507228 C62.93389804 -0.15482864 71.74371821 -0.18110946 80.55370188 -0.22157317 C87.37942916 -0.25183721 94.20508457 -0.26655104 101.03087759 -0.26985329 C105.09966339 -0.27219291 109.16817943 -0.28100962 113.2368927 -0.30631447 C117.07179429 -0.32977989 120.90625205 -0.33375534 124.74120712 -0.32355309 C126.13869081 -0.32306199 127.53619773 -0.32925461 128.93361282 -0.34310913 C138.92926274 -0.43655972 150.07473525 0.20532342 158.43005371 6.39717102 C166.1535693 15.11088091 165.39712894 24.00823985 165.25817871 34.99092102 C165.25070914 36.72825975 165.24501959 38.46560696 165.24102783 40.20295715 C165.22582775 44.75365364 165.18659526 49.3038314 165.14221191 53.85432434 C165.09390283 59.32592552 165.07569835 64.7977011 165.05239868 70.26945496 C165.0137401 78.56238665 164.93704803 86.8541824 164.86755371 95.14717102 C145.39755371 95.14717102 125.92755371 95.14717102 105.86755371 95.14717102 C105.86755371 76.00717102 105.86755371 56.86717102 105.86755371 37.14717102 C80.78755371 37.14717102 55.70755371 37.14717102 29.86755371 37.14717102 C29.86755371 108.09717102 29.86755371 179.04717102 29.86755371 252.14717102 C54.94755371 252.14717102 80.02755371 252.14717102 105.86755371 252.14717102 C105.86755371 232.34717102 105.86755371 212.54717102 105.86755371 192.14717102 C125.33755371 192.14717102 144.80755371 192.14717102 164.86755371 192.14717102 C164.98788014 211.5420086 164.98788014 211.5420086 165.01403809 219.83857727 C165.03193952 225.48954264 165.0530686 231.14036153 165.09387207 236.79121399 C165.12657808 241.34941712 165.14443039 245.90746307 165.15218544 250.46577454 C165.15770882 252.20082573 165.16849453 253.93586877 165.18474388 255.67085266 C165.206668 258.10975935 165.20951445 260.54802468 165.20812988 262.98701477 C165.21891571 263.69696091 165.22970154 264.40690704 165.24081421 265.1383667 C165.2041791 271.14102313 163.85741663 276.49558482 160.21130371 281.35420227 C150.77078839 289.57465099 139.83941008 289.59343368 127.82434082 289.55122375 C126.34142038 289.55693859 124.85850434 289.56390712 123.37559509 289.57202148 C119.37977032 289.5898415 115.38416646 289.5888062 111.38831401 289.5830791 C108.04095166 289.57997216 104.69363084 289.58609607 101.34627444 289.59211785 C93.4460239 289.60612369 85.5458816 289.60463367 77.64562988 289.59321594 C69.51743021 289.58172782 61.38956024 289.59583095 53.26140398 289.62261242 C46.25893721 289.64481398 39.2565736 289.6513971 32.25407416 289.64553601 C28.08210788 289.64217716 23.91035307 289.64451018 19.73841667 289.66178703 C15.81558356 289.67732645 11.89323712 289.67322396 7.97042274 289.65448189 C6.53782617 289.65081581 5.10519294 289.65384621 3.67263031 289.66436768 C-6.14935854 289.73095444 -14.6011453 288.87380474 -22.56994629 282.70967102 C-27.40847976 277.87113755 -29.25083076 273.47932046 -29.26666737 266.72613144 C-29.27112521 265.84180176 -29.27558305 264.95747207 -29.28017598 264.04634452 C-29.27999162 263.07904292 -29.27980726 262.11174133 -29.27961731 261.11512756 C-29.283294 260.08421564 -29.28697069 259.05330372 -29.29075879 257.99115205 C-29.30179946 254.52590076 -29.30564011 251.06067946 -29.30944824 247.59541321 C-29.31571253 245.11522323 -29.3223593 242.6350342 -29.32936096 240.15484619 C-29.34858842 232.70517012 -29.35918848 225.25550201 -29.36808875 217.80580842 C-29.37247418 214.29624555 -29.37784028 210.78668418 -29.38307762 207.2771225 C-29.40008687 195.60869536 -29.41458117 183.94026915 -29.42182636 172.27183151 C-29.4237362 169.2450892 -29.42565654 166.2183469 -29.4276123 163.19160461 C-29.42809604 162.43933957 -29.42857979 161.68707452 -29.42907818 160.91201356 C-29.43737907 148.72498975 -29.46271829 136.53806408 -29.49519298 124.35108313 C-29.52827268 111.83489854 -29.54627588 99.31876382 -29.5494706 86.8025353 C-29.5516347 79.77673456 -29.56036874 72.751077 -29.58593178 65.72531891 C-29.60992332 59.11630048 -29.61345876 52.50749332 -29.60317039 45.89842415 C-29.60267415 43.47326107 -29.6090205 41.04808544 -29.62272644 38.62296104 C-29.64039822 35.31071395 -29.63336154 31.99939657 -29.62019348 28.68714905 C-29.63116273 27.72877034 -29.64213197 26.77039163 -29.65343362 25.78297114 C-29.58653266 18.80696644 -27.99341543 13.54165422 -23.45666504 8.15888977 C-16.25509865 2.33232412 -9.29509481 0.0371269 0 0 Z " fill="#FEFDFD" transform="translate(196.1324462890625,1242.8528289794922)"/>
<path d="M0 0 C2.72830896 2.60322251 4.9440304 5.17982165 7.00512695 8.33447266 C7.56283279 9.1828067 8.12053864 10.03114075 8.69514465 10.90518188 C9.28687973 11.81561249 9.87861481 12.72604309 10.48828125 13.6640625 C11.42041695 15.08493668 11.42041695 15.08493668 12.37138367 16.53451538 C14.35628106 19.56174175 16.3346876 22.59314098 18.3125 25.625 C20.28070988 28.63469174 22.25030523 31.64346473 24.22148132 34.6512146 C25.44563574 36.51989623 26.66793872 38.38979258 27.88801575 40.26113892 C29.02215085 41.9953431 30.17293669 43.71878596 31.34107971 45.43026733 C33 48 33 48 34.40000916 50.83267212 C36.0276657 53.83356228 37.3625547 55.81800803 40 58 C45.55428062 59.44306855 50.94752145 59.30780061 56.65234375 59.1953125 C58.27903302 59.19910323 59.90571745 59.20729802 61.53236389 59.21969604 C65.79610711 59.240442 70.05727729 59.20167856 74.32067871 59.15020752 C78.67800777 59.1082339 83.03511257 59.12296043 87.39257812 59.1328125 C95.92917643 59.1438083 104.46389195 59.09189356 113 59 C116.68599601 86.86293915 112.16427329 114.44198758 98.90625 139.30078125 C97.72036993 142.83286369 98.38490958 143.66980009 100 147 C101.53563481 149.57959232 103.18883627 152.073885 104.85546875 154.5703125 C105.34564987 155.31243988 105.83583099 156.05456726 106.34086609 156.81918335 C107.3999467 158.42138833 108.46110234 160.02222322 109.52410889 161.62182617 C111.20202381 164.14685633 112.87443383 166.67545177 114.54541016 169.20507812 C116.86228879 172.71137701 119.18131917 176.21623542 121.50244141 179.71972656 C126.46619249 187.21234371 131.42243964 194.70987148 136.36758423 202.21478271 C137.85055257 204.46293811 139.33763141 206.70833518 140.82495117 208.95361328 C141.73506272 210.33352734 142.64498525 211.71356609 143.5546875 213.09375 C143.96297287 213.70777679 144.37125824 214.32180359 144.79191589 214.95443726 C147.14059411 218.52876013 149.11718411 222.16407107 151 226 C137.85674927 226.25522867 124.7140909 226.45050063 111.56886387 226.56993389 C105.46436912 226.62726685 99.36157346 226.70498444 93.25805664 226.82983398 C87.36402219 226.94963955 81.47161824 227.01518402 75.57645988 227.04364967 C73.33123036 227.06392545 71.08608702 227.10352317 68.84155464 227.16303062 C50.3306455 227.63413323 50.3306455 227.63413323 45.56686401 223.54824829 C40 216.93262234 40 216.93262234 40 213 C39.37996094 213.3403125 38.75992188 213.680625 38.12109375 214.03125 C36.2049569 215.07996536 34.28528207 216.12222696 32.36328125 217.16015625 C30.11577372 218.38962901 27.88372499 219.64777975 25.66796875 220.93359375 C-1.86295184 236.68209903 -34.54302542 240.63603969 -65.18359375 232.4140625 C-80.13828079 228.21534621 -102.01065636 220.48401546 -111 207 C-109.83726562 206.41734375 -108.67453125 205.8346875 -107.4765625 205.234375 C-91.98398311 197.34860804 -77.20325319 188.3837236 -64 177 C-63.20851563 176.3296875 -62.41703125 175.659375 -61.6015625 174.96875 C-49.99563086 164.86390101 -40.29792268 153.20809927 -31 141 C-32.23363281 141.08701172 -32.23363281 141.08701172 -33.4921875 141.17578125 C-42.64021829 141.54550536 -48.93316554 140.29342333 -55.99609375 134.30859375 C-62.3968509 127.71512563 -66.15949341 119.16811438 -66.6875 110 C-66.30693652 101.71458929 -62.44181363 94.26024463 -56.8125 88.25 C-54 86 -54 86 -51 86 C-49.41990743 87.90294056 -48.05796437 89.76444648 -46.6875 91.8125 C-45.80384462 93.09236367 -44.91831936 94.37093768 -44.03125 95.6484375 C-43.31001953 96.69209473 -43.31001953 96.69209473 -42.57421875 97.75683594 C-39.68659983 101.87151377 -36.68096652 105.89953495 -33.6875 109.9375 C-29.7463912 115.26073188 -25.83348381 120.59859973 -22 126 C-16.07931659 114.97009741 -11.62333074 103.97561884 -8 92 C-7.53980469 90.55753906 -7.53980469 90.55753906 -7.0703125 89.0859375 C-5.34817511 83.35139753 -4.33397664 77.52581384 -3.375 71.625 C-3.25165283 70.87033447 -3.12830566 70.11566895 -3.0012207 69.33813477 C-0.68004165 54.2111153 -0.70634733 38.95473645 -0.4375 23.6875 C-0.39422342 21.38606123 -0.3506065 19.08462883 -0.30664062 16.78320312 C-0.20050098 11.18886956 -0.09857103 5.59447178 0 0 Z " fill="#352E76" transform="translate(679,842)"/>
<path d="M0 0 C26.73 0 53.46 0 81 0 C81 70.95 81 141.9 81 215 C54.27 215 27.54 215 0 215 C0 144.05 0 73.1 0 0 Z " fill="#E0004B" transform="translate(1177,1280)"/>
<path d="M0 0 C6.27924955 0.69769439 11.00724505 1.34620302 16.6875 3.5625 C17.3695752 3.82498535 18.05165039 4.0874707 18.75439453 4.35791016 C29.99958708 8.84401036 39.85654162 15.05444081 49 23 C50.21236328 24.01320313 50.21236328 24.01320313 51.44921875 25.046875 C71.72442375 42.48928056 82.44566182 64.07975517 88 90 C88 99.9 88 109.8 88 120 C58.96 120 29.92 120 0 120 C0 80.4 0 40.8 0 0 Z " fill="#352F76" transform="translate(679,672)"/>
<path d="M0 0 C1.89210895 2.83816343 2.40865412 4.18948263 3.04296875 7.41796875 C3.22577393 8.32522705 3.4085791 9.23248535 3.59692383 10.16723633 C3.79181396 11.16392334 3.9867041 12.16061035 4.1875 13.1875 C4.63131087 15.38311657 5.07670476 17.57841357 5.5234375 19.7734375 C5.7615918 20.94745117 5.99974609 22.12146484 6.24511719 23.33105469 C7.54922669 29.66939801 8.9276417 35.99139336 10.3125 42.3125 C10.45835541 42.97954956 10.60421082 43.64659912 10.75448608 44.3338623 C13.1003728 55.05124124 15.53761374 65.74637803 18 76.4375 C20.76824034 88.45808955 23.43717987 100.49638754 26 112.5625 C26.15388184 113.28412323 26.30776367 114.00574646 26.46630859 114.74923706 C26.89673403 116.7711024 27.32405653 118.7935925 27.75 120.81640625 C27.99234375 121.96568604 28.2346875 123.11496582 28.484375 124.29907227 C29 127 29 127 29 129 C10.19 129 -8.62 129 -28 129 C-26.61170717 120.67024301 -25.14923936 112.44485076 -23.4375 104.1875 C-23.18210449 102.95249756 -22.92670898 101.71749512 -22.66357422 100.44506836 C-20.30077062 89.12334522 -17.68356171 77.8631542 -15.04946899 66.60202026 C-11.70172016 52.27648558 -8.6018582 37.90868651 -5.65087891 23.49633789 C-4.02350464 15.58694272 -2.2780443 7.75334374 0 0 Z " fill="#E0024C" transform="translate(499,1311)"/>
<path d="M0 0 C6.0719741 4.27798175 9.88130784 9.39855314 11.28587341 16.73745728 C11.72163206 19.74190979 11.87064276 22.54368258 11.86352539 25.57568359 C11.86344986 26.65635101 11.86337433 27.73701843 11.86329651 28.85043335 C11.85813522 30.00064972 11.85297394 31.15086609 11.84765625 32.3359375 C11.8462413 33.52603424 11.84482635 34.71613098 11.84336853 35.94229126 C11.8377842 39.73238672 11.82523451 43.52242248 11.8125 47.3125 C11.80748298 49.8867179 11.80292042 52.46093672 11.79882812 55.03515625 C11.78781989 61.33595777 11.77109731 67.63672462 11.75 73.9375 C9.00753102 71.31953828 6.77178587 68.71531578 4.68139648 65.55541992 C3.82547157 64.26839424 3.82547157 64.26839424 2.95225525 62.95536804 C2.34797195 62.03552628 1.74368866 61.11568451 1.12109375 60.16796875 C0.49018326 59.21360428 -0.14072723 58.25923981 -0.79075623 57.2759552 C-2.12190677 55.25934402 -3.45063382 53.2411313 -4.77709961 51.22143555 C-6.8014273 48.1418448 -8.83668842 45.06969164 -10.87304688 41.99804688 C-12.1673355 40.03429482 -13.46097678 38.07011593 -14.75390625 36.10546875 C-15.66336754 34.73481514 -15.66336754 34.73481514 -16.59120178 33.33647156 C-22.05743722 24.980327 -25.61041937 18.18702321 -24.25 7.9375 C-22.4142322 3.82538012 -20.96931157 2.36908694 -17.125 0.0625 C-11.48693963 -1.97447665 -5.64874039 -1.84670359 0 0 Z " fill="#362F77" transform="translate(666.25,764.0625)"/>
</svg>
